<svg id="Capa_1" data-name="Capa 1" xmlns="http://www.w3.org/2000/svg" viewBox="0 0 79 79"><defs><style>.cls-1{fill:#f2f2f2;}</style></defs><title>favicon</title><circle cx="39.5" cy="39.5" r="39.5"/><path class="cls-1" d="M36.64,45.17H24.2V56.71H38.06v3.46h-18v-32H37.35v3.47H24.2V41.75H36.64Z" transform="translate(-3.46 -4.65)"/><path class="cls-1" d="M65.79,59.13a20.43,20.43,0,0,1-8.45,1.52c-9,0-15.81-5.7-15.81-16.19,0-10,6.79-16.81,16.71-16.81a17.17,17.17,0,0,1,7.6,1.42l-1,3.37a15.06,15.06,0,0,0-6.46-1.33c-7.5,0-12.49,4.8-12.49,13.2,0,7.84,4.51,12.87,12.3,12.87a16.49,16.49,0,0,0,6.74-1.33Z" transform="translate(-3.46 -4.65)"/></svg>